<mxfile host="app.diagrams.net" modified="2023-02-07T07:14:51.291Z" agent="5.0 (Macintosh; Intel Mac OS X 10_15_7) AppleWebKit/537.36 (KHTML, like Gecko) Chrome/109.0.0.0 Safari/537.36" etag="YETFp1E2EnFGW0_sHe-l" version="20.8.16" type="github">
  <diagram name="Page-1" id="9c096ad6-e400-ecc8-3e38-643d2caac077">
    <mxGraphModel dx="1936" dy="1265" grid="1" gridSize="10" guides="1" tooltips="1" connect="1" arrows="1" fold="1" page="1" pageScale="1.5" pageWidth="1169" pageHeight="826" background="none" math="0" shadow="0">
      <root>
        <mxCell id="0" style=";html=1;" />
        <mxCell id="1" style=";html=1;" parent="0" />
        <mxCell id="uR-RKyQ-PGuoXySGYM6e-5" value="" style="edgeStyle=none;curved=1;rounded=0;orthogonalLoop=1;jettySize=auto;html=1;fontSize=12;startSize=8;endSize=8;entryX=0;entryY=0.25;entryDx=0;entryDy=0;" edge="1" parent="1" source="uR-RKyQ-PGuoXySGYM6e-2" target="uR-RKyQ-PGuoXySGYM6e-4">
          <mxGeometry relative="1" as="geometry" />
        </mxCell>
        <mxCell id="uR-RKyQ-PGuoXySGYM6e-9" value="" style="edgeStyle=none;curved=1;rounded=0;orthogonalLoop=1;jettySize=auto;html=1;fontSize=12;startSize=8;endSize=8;entryX=0;entryY=0.75;entryDx=0;entryDy=0;" edge="1" parent="1" source="uR-RKyQ-PGuoXySGYM6e-2" target="uR-RKyQ-PGuoXySGYM6e-7">
          <mxGeometry relative="1" as="geometry" />
        </mxCell>
        <mxCell id="uR-RKyQ-PGuoXySGYM6e-2" value="Throwable" style="rounded=1;whiteSpace=wrap;html=1;fontSize=16;fillColor=#008a00;fontColor=#ffffff;strokeColor=#005700;" vertex="1" parent="1">
          <mxGeometry y="280" width="120" height="60" as="geometry" />
        </mxCell>
        <mxCell id="uR-RKyQ-PGuoXySGYM6e-21" value="" style="edgeStyle=none;curved=1;rounded=0;orthogonalLoop=1;jettySize=auto;html=1;fontSize=12;startSize=8;endSize=8;" edge="1" parent="1" source="uR-RKyQ-PGuoXySGYM6e-4" target="uR-RKyQ-PGuoXySGYM6e-20">
          <mxGeometry relative="1" as="geometry" />
        </mxCell>
        <mxCell id="uR-RKyQ-PGuoXySGYM6e-36" style="edgeStyle=none;curved=1;rounded=0;orthogonalLoop=1;jettySize=auto;html=1;fontSize=12;startSize=8;endSize=8;entryX=0;entryY=0.25;entryDx=0;entryDy=0;" edge="1" parent="1" source="uR-RKyQ-PGuoXySGYM6e-4" target="uR-RKyQ-PGuoXySGYM6e-16">
          <mxGeometry relative="1" as="geometry">
            <mxPoint x="430" y="800" as="targetPoint" />
          </mxGeometry>
        </mxCell>
        <mxCell id="uR-RKyQ-PGuoXySGYM6e-4" value="Exceptioin" style="whiteSpace=wrap;html=1;fontSize=16;rounded=1;fillColor=#60a917;fontColor=#ffffff;strokeColor=#2D7600;" vertex="1" parent="1">
          <mxGeometry x="240" y="400" width="120" height="60" as="geometry" />
        </mxCell>
        <mxCell id="uR-RKyQ-PGuoXySGYM6e-10" value="" style="edgeStyle=none;curved=1;rounded=0;orthogonalLoop=1;jettySize=auto;html=1;fontSize=12;startSize=8;endSize=8;" edge="1" parent="1" source="uR-RKyQ-PGuoXySGYM6e-7" target="uR-RKyQ-PGuoXySGYM6e-8">
          <mxGeometry relative="1" as="geometry" />
        </mxCell>
        <mxCell id="uR-RKyQ-PGuoXySGYM6e-11" value="" style="edgeStyle=none;curved=1;rounded=0;orthogonalLoop=1;jettySize=auto;html=1;fontSize=12;startSize=8;endSize=8;" edge="1" parent="1" source="uR-RKyQ-PGuoXySGYM6e-7" target="uR-RKyQ-PGuoXySGYM6e-8">
          <mxGeometry relative="1" as="geometry" />
        </mxCell>
        <mxCell id="uR-RKyQ-PGuoXySGYM6e-12" value="" style="edgeStyle=none;curved=1;rounded=0;orthogonalLoop=1;jettySize=auto;html=1;fontSize=12;startSize=8;endSize=8;" edge="1" parent="1" source="uR-RKyQ-PGuoXySGYM6e-7" target="uR-RKyQ-PGuoXySGYM6e-8">
          <mxGeometry relative="1" as="geometry" />
        </mxCell>
        <mxCell id="uR-RKyQ-PGuoXySGYM6e-13" value="" style="edgeStyle=none;curved=1;rounded=0;orthogonalLoop=1;jettySize=auto;html=1;fontSize=12;startSize=8;endSize=8;" edge="1" parent="1" source="uR-RKyQ-PGuoXySGYM6e-7" target="uR-RKyQ-PGuoXySGYM6e-8">
          <mxGeometry relative="1" as="geometry" />
        </mxCell>
        <mxCell id="uR-RKyQ-PGuoXySGYM6e-15" value="" style="edgeStyle=none;curved=1;rounded=0;orthogonalLoop=1;jettySize=auto;html=1;fontSize=12;startSize=8;endSize=8;" edge="1" parent="1" source="uR-RKyQ-PGuoXySGYM6e-7" target="uR-RKyQ-PGuoXySGYM6e-14">
          <mxGeometry relative="1" as="geometry" />
        </mxCell>
        <mxCell id="uR-RKyQ-PGuoXySGYM6e-7" value="Error" style="whiteSpace=wrap;html=1;fontSize=16;rounded=1;fillColor=#60a917;fontColor=#ffffff;strokeColor=#2D7600;" vertex="1" parent="1">
          <mxGeometry x="230" y="130" width="120" height="60" as="geometry" />
        </mxCell>
        <mxCell id="uR-RKyQ-PGuoXySGYM6e-8" value="AWTError" style="whiteSpace=wrap;html=1;fontSize=16;rounded=1;fillColor=#f0a30a;fontColor=#000000;strokeColor=#BD7000;" vertex="1" parent="1">
          <mxGeometry x="440" y="200" width="120" height="60" as="geometry" />
        </mxCell>
        <mxCell id="uR-RKyQ-PGuoXySGYM6e-23" value="" style="edgeStyle=none;curved=1;rounded=0;orthogonalLoop=1;jettySize=auto;html=1;fontSize=12;startSize=8;endSize=8;" edge="1" parent="1" source="uR-RKyQ-PGuoXySGYM6e-14" target="uR-RKyQ-PGuoXySGYM6e-22">
          <mxGeometry relative="1" as="geometry" />
        </mxCell>
        <mxCell id="uR-RKyQ-PGuoXySGYM6e-25" value="" style="edgeStyle=none;curved=1;rounded=0;orthogonalLoop=1;jettySize=auto;html=1;fontSize=12;startSize=8;endSize=8;" edge="1" parent="1" source="uR-RKyQ-PGuoXySGYM6e-14" target="uR-RKyQ-PGuoXySGYM6e-24">
          <mxGeometry relative="1" as="geometry" />
        </mxCell>
        <mxCell id="uR-RKyQ-PGuoXySGYM6e-14" value="VirtulMachineError" style="whiteSpace=wrap;html=1;fontSize=16;rounded=1;fillColor=#f0a30a;fontColor=#000000;strokeColor=#BD7000;" vertex="1" parent="1">
          <mxGeometry x="440" y="60" width="170" height="60" as="geometry" />
        </mxCell>
        <mxCell id="uR-RKyQ-PGuoXySGYM6e-45" style="edgeStyle=none;curved=1;rounded=0;orthogonalLoop=1;jettySize=auto;html=1;entryX=0;entryY=0.5;entryDx=0;entryDy=0;fontSize=12;startSize=8;endSize=8;" edge="1" parent="1" source="uR-RKyQ-PGuoXySGYM6e-16" target="uR-RKyQ-PGuoXySGYM6e-37">
          <mxGeometry relative="1" as="geometry" />
        </mxCell>
        <mxCell id="uR-RKyQ-PGuoXySGYM6e-46" style="edgeStyle=none;curved=1;rounded=0;orthogonalLoop=1;jettySize=auto;html=1;fontSize=12;startSize=8;endSize=8;" edge="1" parent="1" source="uR-RKyQ-PGuoXySGYM6e-16">
          <mxGeometry relative="1" as="geometry">
            <mxPoint x="670" y="599.9999999999998" as="targetPoint" />
          </mxGeometry>
        </mxCell>
        <mxCell id="uR-RKyQ-PGuoXySGYM6e-47" style="edgeStyle=none;curved=1;rounded=0;orthogonalLoop=1;jettySize=auto;html=1;entryX=0;entryY=0.25;entryDx=0;entryDy=0;fontSize=12;startSize=8;endSize=8;" edge="1" parent="1" source="uR-RKyQ-PGuoXySGYM6e-16" target="uR-RKyQ-PGuoXySGYM6e-39">
          <mxGeometry relative="1" as="geometry" />
        </mxCell>
        <mxCell id="uR-RKyQ-PGuoXySGYM6e-48" style="edgeStyle=none;curved=1;rounded=0;orthogonalLoop=1;jettySize=auto;html=1;entryX=0;entryY=0.5;entryDx=0;entryDy=0;fontSize=12;startSize=8;endSize=8;" edge="1" parent="1" source="uR-RKyQ-PGuoXySGYM6e-16" target="uR-RKyQ-PGuoXySGYM6e-40">
          <mxGeometry relative="1" as="geometry" />
        </mxCell>
        <mxCell id="uR-RKyQ-PGuoXySGYM6e-49" style="edgeStyle=none;curved=1;rounded=0;orthogonalLoop=1;jettySize=auto;html=1;entryX=0;entryY=0.25;entryDx=0;entryDy=0;fontSize=12;startSize=8;endSize=8;" edge="1" parent="1" source="uR-RKyQ-PGuoXySGYM6e-16" target="uR-RKyQ-PGuoXySGYM6e-41">
          <mxGeometry relative="1" as="geometry" />
        </mxCell>
        <mxCell id="uR-RKyQ-PGuoXySGYM6e-50" style="edgeStyle=none;curved=1;rounded=0;orthogonalLoop=1;jettySize=auto;html=1;entryX=0;entryY=0.5;entryDx=0;entryDy=0;fontSize=12;startSize=8;endSize=8;" edge="1" parent="1" source="uR-RKyQ-PGuoXySGYM6e-16" target="uR-RKyQ-PGuoXySGYM6e-43">
          <mxGeometry relative="1" as="geometry" />
        </mxCell>
        <mxCell id="uR-RKyQ-PGuoXySGYM6e-51" style="edgeStyle=none;curved=1;rounded=0;orthogonalLoop=1;jettySize=auto;html=1;entryX=0;entryY=0.5;entryDx=0;entryDy=0;fontSize=12;startSize=8;endSize=8;" edge="1" parent="1" source="uR-RKyQ-PGuoXySGYM6e-16" target="uR-RKyQ-PGuoXySGYM6e-44">
          <mxGeometry relative="1" as="geometry" />
        </mxCell>
        <mxCell id="uR-RKyQ-PGuoXySGYM6e-16" value="RuntimeException" style="whiteSpace=wrap;html=1;fontSize=16;rounded=1;fillColor=#f0a30a;fontColor=#000000;strokeColor=#BD7000;" vertex="1" parent="1">
          <mxGeometry x="440" y="680" width="190" height="60" as="geometry" />
        </mxCell>
        <mxCell id="uR-RKyQ-PGuoXySGYM6e-32" value="" style="edgeStyle=none;curved=1;rounded=0;orthogonalLoop=1;jettySize=auto;html=1;fontSize=12;startSize=8;endSize=8;" edge="1" parent="1" source="uR-RKyQ-PGuoXySGYM6e-20" target="uR-RKyQ-PGuoXySGYM6e-27">
          <mxGeometry relative="1" as="geometry" />
        </mxCell>
        <mxCell id="uR-RKyQ-PGuoXySGYM6e-33" value="" style="edgeStyle=none;curved=1;rounded=0;orthogonalLoop=1;jettySize=auto;html=1;fontSize=12;startSize=8;endSize=8;" edge="1" parent="1" source="uR-RKyQ-PGuoXySGYM6e-20" target="uR-RKyQ-PGuoXySGYM6e-27">
          <mxGeometry relative="1" as="geometry" />
        </mxCell>
        <mxCell id="uR-RKyQ-PGuoXySGYM6e-34" style="edgeStyle=none;curved=1;rounded=0;orthogonalLoop=1;jettySize=auto;html=1;fontSize=12;startSize=8;endSize=8;" edge="1" parent="1" source="uR-RKyQ-PGuoXySGYM6e-20" target="uR-RKyQ-PGuoXySGYM6e-26">
          <mxGeometry relative="1" as="geometry" />
        </mxCell>
        <mxCell id="uR-RKyQ-PGuoXySGYM6e-20" value="IOException" style="whiteSpace=wrap;html=1;fontSize=16;rounded=1;fillColor=#f0a30a;fontColor=#000000;strokeColor=#BD7000;" vertex="1" parent="1">
          <mxGeometry x="440" y="320" width="120" height="60" as="geometry" />
        </mxCell>
        <mxCell id="uR-RKyQ-PGuoXySGYM6e-22" value="OutOfMemoryError" style="whiteSpace=wrap;html=1;fontSize=16;rounded=1;fillColor=#e51400;fontColor=#ffffff;strokeColor=#B20000;" vertex="1" parent="1">
          <mxGeometry x="680" y="110" width="180" height="60" as="geometry" />
        </mxCell>
        <mxCell id="uR-RKyQ-PGuoXySGYM6e-24" value="StackOverFlowError" style="whiteSpace=wrap;html=1;fontSize=16;rounded=1;fillColor=#e51400;fontColor=#ffffff;strokeColor=#B20000;" vertex="1" parent="1">
          <mxGeometry x="680" width="180" height="60" as="geometry" />
        </mxCell>
        <mxCell id="uR-RKyQ-PGuoXySGYM6e-26" value="FileNotFoundExcetion" style="whiteSpace=wrap;html=1;fontSize=16;rounded=1;fillColor=#e51400;fontColor=#ffffff;strokeColor=#B20000;" vertex="1" parent="1">
          <mxGeometry x="680" y="360" width="170" height="60" as="geometry" />
        </mxCell>
        <mxCell id="uR-RKyQ-PGuoXySGYM6e-27" value="EOFException" style="whiteSpace=wrap;html=1;fontSize=16;rounded=1;fillColor=#e51400;fontColor=#ffffff;strokeColor=#B20000;" vertex="1" parent="1">
          <mxGeometry x="680" y="270" width="120" height="60" as="geometry" />
        </mxCell>
        <mxCell id="uR-RKyQ-PGuoXySGYM6e-37" value="ArithmeticException" style="whiteSpace=wrap;html=1;fontSize=16;rounded=1;fillColor=#e51400;fontColor=#ffffff;strokeColor=#B20000;" vertex="1" parent="1">
          <mxGeometry x="680" y="480" width="170" height="60" as="geometry" />
        </mxCell>
        <mxCell id="uR-RKyQ-PGuoXySGYM6e-38" value="MissingResourceException" style="whiteSpace=wrap;html=1;fontSize=16;rounded=1;fillColor=#e51400;fontColor=#ffffff;strokeColor=#B20000;" vertex="1" parent="1">
          <mxGeometry x="677" y="559" width="223" height="60" as="geometry" />
        </mxCell>
        <mxCell id="uR-RKyQ-PGuoXySGYM6e-39" value="ClassNotFoundException" style="whiteSpace=wrap;html=1;fontSize=16;rounded=1;fillColor=#e51400;fontColor=#ffffff;strokeColor=#B20000;" vertex="1" parent="1">
          <mxGeometry x="677" y="640" width="213" height="60" as="geometry" />
        </mxCell>
        <mxCell id="uR-RKyQ-PGuoXySGYM6e-40" value="NullPointerException" style="whiteSpace=wrap;html=1;fontSize=16;rounded=1;fillColor=#e51400;fontColor=#ffffff;strokeColor=#B20000;" vertex="1" parent="1">
          <mxGeometry x="677" y="720" width="183" height="60" as="geometry" />
        </mxCell>
        <mxCell id="uR-RKyQ-PGuoXySGYM6e-41" value="IllegAlargumentException" style="whiteSpace=wrap;html=1;fontSize=16;rounded=1;fillColor=#e51400;fontColor=#ffffff;strokeColor=#B20000;" vertex="1" parent="1">
          <mxGeometry x="677" y="800" width="213" height="60" as="geometry" />
        </mxCell>
        <mxCell id="uR-RKyQ-PGuoXySGYM6e-43" value="ArrayIndexOutOfBoundsException" style="whiteSpace=wrap;html=1;fontSize=16;rounded=1;fillColor=#e51400;fontColor=#ffffff;strokeColor=#B20000;" vertex="1" parent="1">
          <mxGeometry x="677" y="880" width="273" height="60" as="geometry" />
        </mxCell>
        <mxCell id="uR-RKyQ-PGuoXySGYM6e-44" value="UnkownTypeException" style="whiteSpace=wrap;html=1;fontSize=16;rounded=1;fillColor=#e51400;fontColor=#ffffff;strokeColor=#B20000;" vertex="1" parent="1">
          <mxGeometry x="680" y="960" width="190" height="60" as="geometry" />
        </mxCell>
      </root>
    </mxGraphModel>
  </diagram>
</mxfile>
